<svg width="28" height="26" viewBox="0 0 28 26" fill="none" xmlns="http://www.w3.org/2000/svg">
<path d="M21 8.66602C21 6.94211 20.2625 5.28881 18.9497 4.06982C17.637 2.85084 15.8565 2.16602 14 2.16602C12.1435 2.16602 10.363 2.85084 9.05025 4.06982C7.7375 5.28881 7 6.94211 7 8.66602C7 16.2493 3.5 18.416 3.5 18.416H24.5C24.5 18.416 21 16.2493 21 8.66602Z" stroke="white" stroke-width="2" stroke-linecap="round" stroke-linejoin="round"/>
<path d="M16.0181 22.75C15.813 23.0783 15.5186 23.3509 15.1644 23.5403C14.8102 23.7298 14.4086 23.8295 13.9998 23.8295C13.591 23.8295 13.1894 23.7298 12.8352 23.5403C12.481 23.3509 12.1866 23.0783 11.9814 22.75" stroke="white" stroke-width="2" stroke-linecap="round" stroke-linejoin="round"/>
</svg>
